HIERARCHY
ROOT Hips
{
	OFFSET 0.00000 0.00000 0.00000
	CHANNELS 6 Xposition Yposition Zposition Yrotation Zrotation Xrotation 
	JOINT Lumbar
	{
		OFFSET 0 0 0
		CHANNELS 3 Zrotation Xrotation Yrotation
		JOINT Neck
		{
			OFFSET 0.00 0.2701 0.00
			CHANNELS 3 Zrotation Xrotation Yrotation
			End Site
			{
				OFFSET 0.00 0.1379 0.00
			}
		}
		JOINT RightShoulder
		{
			OFFSET 0.0119 0.2289 0.1181
			CHANNELS 3 Zrotation Xrotation Yrotation
			JOINT RightElbow
			{
				OFFSET 0.00 -0.1475 0.00
				CHANNELS 2 Zrotation Yrotation
				JOINT RightWrist
				{
					OFFSET 0.00 -0.1605 0.00
					CHANNELS 2 Zrotation Xrotation
					End Site
					{
						OFFSET 0.0040 -0.1068 0.0006
					}
				}
			}
		}
		JOINT LeftShoulder
		{
			OFFSET 0.0119 0.2289 -0.1181
			CHANNELS 3 Zrotation Xrotation Yrotation
			JOINT LeftElbow
			{
				OFFSET 0.00 -0.1475 0.00
				CHANNELS 2 Zrotation Yrotation
				JOINT LeftWrist
				{
					OFFSET 0.00 -0.1605 0.00
					CHANNELS 2 Zrotation Xrotation
					End Site
					{
						OFFSET 0.0040 -0.1068 -0.0006
					}
				}
			}
		}
	}
	JOINT RightHip
	{
		OFFSET 0.0316 -0.0424 0.0458
		CHANNELS 3 Zrotation Xrotation Yrotation
		JOINT RightKnee
		{
			OFFSET 0.00 -0.2438 0.00
			CHANNELS 1 Zrotation
			JOINT RightAnkle
			{
				OFFSET 0.00 -0.2449 0.00
				CHANNELS 3 Zrotation Xrotation Yrotation
				End Site
				{
					OFFSET 0.1237 -0.0542 0.0051
				}
			}
		}
	}
	JOINT LeftHip
	{
		OFFSET 0.0316 -0.0424 -0.0458
		CHANNELS 3 Zrotation Xrotation Yrotation
		JOINT LeftKnee
		{
			OFFSET 0.00 -0.2438 0.00
			CHANNELS 1 Zrotation
			JOINT LeftAnkle
			{
				OFFSET 0.00 -0.2449 0.00
				CHANNELS 3 Zrotation Xrotation Yrotation
				End Site
				{
					OFFSET 0.1237 -0.0542 -0.0051
				}
			}
		}
	}
}
MOTION
Frames: 25
Frame Time: 0.02
0.00387 -0.00036 -0.00077 -174.88765 -39.16362 -1.77766 45.12759 2.8749 -7.4236 9.50237 3.76168 -0.83624 13.54844 -14.68793 45.08218 67.0451 87.07062 11.28679 -3.61879 7.37517 16.21355 -37.72328 82.46257 -81.18008 2.94408 1.79977 43.19925 -0.57167 -3.79712 -20.76023 -6.82728 -3.14871 -3.76824 46.80838 5.34876 10.55575 -25.16589 -6.80892 1.73389 3.0888
0.0032 -0.0005 -0.00092 -174.78758 -39.5815 -1.78577 45.56464 2.78039 -7.07341 9.20951 3.7059 -0.83879 11.58878 -14.29965 38.98943 62.44391 86.75436 10.09892 -3.08489 5.29467 15.8039 -35.00051 78.6735 -82.57465 3.24869 1.34677 43.53427 -0.61525 -4.58435 -20.6337 -6.7801 -3.11388 -3.74883 47.22799 5.402 10.47822 -25.14051 -6.80021 1.73797 3.09067
0.00253 -0.00064 -0.00107 -174.68765 -39.99791 -1.79381 46.00052 2.686 -6.7245 8.91582 3.65003 -0.84143 9.62938 -13.91324 32.91463 57.85838 86.44579 8.91697 -2.55155 3.21505 15.39617 -32.28294 74.8963 -83.96531 3.55291 0.89531 43.8679 -0.65867 -5.36932 -20.50757 -6.73306 -3.07914 -3.72947 47.64598 5.4551 10.40094 -25.1152 -6.79153 1.74204 3.09254
0.00186 -0.00077 -0.00123 -174.58786 -40.41448 -1.80189 46.43626 2.59175 -6.37541 8.62357 3.59438 -0.84399 7.67482 -13.52628 26.84048 53.2716 86.13204 7.73323 -2.01903 1.14005 14.98797 -29.56817 71.11895 -85.35542 3.8566 0.44375 44.20183 -0.70212 -6.15419 -20.38143 -6.68602 -3.04441 -3.71012 48.06425 5.50818 10.32366 -25.08989 -6.78284 1.74611 3.09442
0.0012 -0.00091 -0.00138 -174.48798 -40.83258 -1.81005 46.87309 2.49744 -6.02496 8.33284 3.53891 -0.84644 5.72219 -13.13715 20.7488 48.66861 85.80684 6.54244 -1.48661 -0.93371 14.57737 -26.84903 67.32964 -86.74992 4.16069 -0.00949 44.53728 -0.74571 -6.94115 -20.25491 -6.63885 -3.00959 -3.69071 48.48425 5.56138 10.24614 -25.0645 -6.77412 1.75019 3.0963
0.00053 -0.00105 -0.00153 -174.38797 -41.24543 -1.81782 47.30692 2.40291 -5.67932 8.03296 3.48218 -0.84948 3.74875 -12.75644 14.70988 44.12004 85.53251 5.37895 -0.95155 -3.02545 14.17559 -24.13477 63.57808 -88.13278 4.4653 -0.45724 44.86707 -0.78878 -7.72183 -20.1296 -6.59207 -2.97504 -3.67147 48.898 5.61428 10.16938 -25.03935 -6.76553 1.75423 3.09815
-0.00014 -0.00119 -0.00168 -174.28832 -41.66837 -1.82638 47.74633 2.30891 -5.32439 7.75173 3.42807 -0.85132 1.81929 -12.35938 8.57152 39.46726 85.15951 4.16267 -0.4217 -5.07884 13.75713 -21.41469 59.75502 -89.53583 4.76795 -0.91527 45.20787 -0.8329 -8.51454 -20.00199 -6.54455 -2.93995 -3.65191 49.32386 5.66771 10.09115 -25.01375 -6.75669 1.75835 3.10006
-0.0008 -0.00132 -0.00183 -174.18836 -42.08203 -1.83422 48.18055 2.21444 -4.97803 7.45346 3.37149 -0.85428 -0.15061 -11.97708 2.52475 34.91005 84.87131 2.99351 0.11172 -7.16736 13.35289 -18.69812 55.99729 -90.92334 5.07344 -1.36431 45.53856 -0.87595 -9.29569 -19.87648 -6.49773 -2.90541 -3.63267 49.73857 5.72069 10.01432 -24.98856 -6.74807 1.76239 3.10191
-0.00148 -0.00146 -0.00199 -174.08785 -42.48438 -1.84113 48.60883 2.11926 -4.64202 7.13331 3.31206 -0.85857 -2.17226 -11.61406 -3.41235 30.4701 84.71242 1.88805 0.65482 -9.30162 12.97061 -15.99154 52.32028 -92.28029 5.37855 -1.80059 45.85677 -0.91813 -10.06489 -19.75355 -6.45167 -2.87131 -3.61371 50.13968 5.77302 9.93899 -24.9639 -6.73973 1.76637 3.1037
-0.00212 -0.0016 -0.00213 -173.99001 -42.95192 -1.85324 49.07251 2.02777 -4.24605 6.93583 3.26954 -0.8551 -3.90331 -11.1438 -9.98749 25.35669 83.88679 0.43443 1.15822 -11.18128 12.47573 -13.24447 48.1813 -93.77837 5.67428 -2.30497 46.24642 -0.96661 -10.90944 -19.61583 -6.40097 -2.83401 -3.59278 50.61913 5.82878 9.85441 -24.93628 -6.72984 1.77078 3.10587
-0.00282 -0.00174 -0.0023 -173.88687 -43.28183 -1.85445 49.46067 1.92878 -3.97686 6.48182 3.19103 -0.86806 -6.24209 -10.89741 -15.21145 21.66359 84.41778 -0.29649 1.735 -13.59187 12.2096 -10.57251 45.0157 -95.0007 5.99711 -2.66908 46.48559 -1.00098 -11.59074 -19.50929 -6.36023 -2.8039 -3.57623 50.93327 5.87747 9.78971 -24.91482 -6.7232 1.77426 3.10724
-0.00369 -0.00192 -0.00254 -173.76651 -43.23124 -1.82503 49.6468 1.80654 -4.05664 5.29796 3.01535 -0.92615 -10.30869 -11.29016 -16.73593 21.90967 89.13057 1.07464 2.60301 -17.5246 12.65047 -8.19443 44.55735 -95.27344 6.33296 -2.61587 46.30606 -1.00341 -11.85656 -19.48942 -6.34555 -2.78997 -3.57006 50.78959 5.90532 9.77651 -24.91122 -6.72567 1.77535 3.10631
-0.0046 -0.0021 -0.00282 -173.64147 -43.04308 -1.78481 49.7562 1.67733 -4.26344 3.86171 2.80325 -1.00067 -14.97207 -11.90254 -16.90341 23.57366 95.1267 3.15042 3.5296 -21.97644 13.30674 -5.8777 45.06985 -95.30125 6.70582 -2.42738 45.97667 -0.99063 -11.95355 -19.50067 -6.34106 -2.7838 -3.56852 50.48087 5.92626 9.78341 -24.91362 -6.73137 1.77552 3.10461
-0.00548 -0.00227 -0.0031 -173.52011 -42.91954 -1.74998 49.89724 1.55295 -4.41149 2.55731 2.60674 -1.06774 -19.32621 -12.39889 -17.68488 24.56225 100.22796 4.82487 4.36877 -26.15075 13.81213 -3.47262 45.11421 -95.57198 7.10382 -2.32255 45.71945 -0.98013 -12.10516 -19.49698 -6.33278 -2.77654 -3.566 50.25018 5.95142 9.78363 -24.91263 -6.73545 1.77596 3.10329
-0.0064 -0.00247 -0.00334 -173.39155 -42.78635 -1.71299 50.05148 1.42126 -4.56442 1.17825 2.41413 -1.13508 -23.85201 -12.96644 -18.46985 25.68692 106.62223 6.8391 5.45845 -30.51002 14.54 -1.3136 45.27353 -95.30225 7.33126 -2.12565 45.44409 -0.98832 -12.34515 -19.49672 -6.32111 -2.75951 -3.55901 50.00563 5.97236 9.77522 -24.91444 -6.74016 1.77683 3.10174
-0.00724 -0.00262 -0.00365 -173.2777 -42.6413 -1.67805 50.16038 1.30351 -4.73694 -0.10295 2.20487 -1.20538 -28.1493 -13.43486 -18.93239 26.86142 110.65923 8.31767 6.04812 -34.59679 14.85761 1.33164 45.42441 -96.08054 7.91457 -2.08614 45.17185 -0.95502 -12.36684 -19.49669 -6.31873 -2.76406 -3.56212 49.75177 6.00004 9.7874 -24.91185 -6.74435 1.77682 3.1006
-0.00788 -0.00261 -0.00412 -173.19851 -42.49215 -1.65045 50.16009 1.2229 -4.9349 -1.06886 1.95771 -1.28293 -31.77068 -13.60116 -18.78118 27.8453 107.59323 8.09856 5.17416 -37.88791 13.97269 5.42943 45.30344 -99.98328 9.54249 -2.53469 44.93832 -0.80194 -11.77726 -19.4897 -6.34112 -2.83137 -3.59454 49.50513 6.05147 9.87046 -24.89557 -6.7459 1.77242 3.09974
-0.00844 -0.00254 -0.00466 -173.13565 -42.33686 -1.62539 50.11725 1.15717 -5.14753 -1.92377 1.69524 -1.36234 -35.12064 -13.65629 -18.36012 28.82618 102.16146 7.32443 3.80745 -40.86971 12.67202 9.99655 45.14236 -104.91792 11.51471 -3.14252 44.71452 -0.6093 -10.98279 -19.48189 -6.37221 -2.91918 -3.63648 49.25635 6.1093 9.97036 -24.87471 -6.74687 1.76752 3.09949
-0.00903 -0.0025 -0.00518 -173.06995 -42.1876 -1.59989 50.09587 1.08655 -5.35198 -2.81926 1.44035 -1.43886 -38.53061 -13.7444 -18.10323 29.79597 97.99708 6.83439 2.71176 -43.9397 11.57084 14.29218 45.00632 -109.26769 13.28186 -3.6642 44.49042 -0.44064 -10.31531 -19.4744 -6.39825 -2.99429 -3.67237 49.01333 6.16193 10.04963 -24.85598 -6.74838 1.76432 3.09967
-0.00965 -0.00246 -0.00567 -172.98461 -42.01956 -1.57129 50.0633 1.00759 -5.56785 -3.76774 1.18154 -1.52453 -42.23612 -13.91028 -17.63592 30.86881 93.06988 6.23443 1.42071 -47.25451 10.42654 18.84945 44.87478 -114.09615 15.25262 -4.23946 44.24309 -0.24611 -9.50046 -19.46808 -6.42926 -3.08398 -3.71569 48.74391 6.22397 10.18291 -24.83714 -6.74889 1.75503 3.09692
-0.01017 -0.00241 -0.00622 -172.94425 -41.89135 -1.5495 50.04439 0.94986 -5.76103 -4.57304 0.92773 -1.59141 -45.24467 -13.8899 -17.54503 31.70663 89.14795 5.72249 0.41702 -49.9722 9.27817 22.95135 44.7125 -118.17849 16.88418 -4.74246 44.04914 -0.09629 -8.94417 -19.45891 -6.45186 -3.14805 -3.74576 48.53165 6.26807 10.20931 -24.81749 -6.75125 1.75813 3.10033
-0.01043 -0.00232 -0.00687 -173.02297 -41.87215 -1.54944 50.07837 0.94528 -5.89371 -5.03495 0.69169 -1.60538 -46.46703 -13.3384 -18.69949 31.89951 88.61791 5.58503 0.34246 -51.16943 8.15476 25.87231 44.46368 -119.9235 17.46245 -5.00932 43.99487 -0.07936 -9.16898 -19.4403 -6.44921 -3.13638 -3.7366 48.47415 6.26035 9.91974 -24.79574 -6.75923 1.79704 3.12144
-0.01058 -0.00223 -0.00756 -173.14652 -41.89436 -1.5555 50.12694 0.96196 -6.00134 -5.3503 0.4613 -1.60039 -46.9792 -12.61051 -20.22328 31.84848 89.16776 5.55245 0.57102 -51.76144 7.05356 28.28173 44.18271 -120.88624 17.69254 -5.19802 43.9957 -0.10887 -9.65835 -19.41901 -6.43776 -3.09824 -3.71382 48.47576 6.23447 9.52482 -24.77354 -6.76903 1.84817 3.14858
-0.01077 -0.00214 -0.00823 -173.25042 -41.90001 -1.55655 50.16628 0.97012 -6.11603 -5.71569 0.22843 -1.60438 -47.76843 -11.991 -21.49251 31.8994 89.19241 5.47126 0.65058 -52.59649 5.98307 30.80227 43.91885 -122.22645 18.10409 -5.42183 43.97562 -0.11745 -10.01677 -19.39992 -6.43019 -3.07211 -3.69739 48.45351 6.21749 9.18929 -24.7521 -6.77774 1.89268 3.17239
-0.01098 -0.00203 -0.0089 -173.35224 -41.89605 -1.56729 50.21563 0.97387 -6.24956 -6.14888 -0.00517 -1.60692 -48.74839 -11.24818 -23.11559 31.98752 89.28088 5.37557 0.76034 -53.56644 4.72265 33.85821 43.64296 -123.51626 18.43288 -5.65356 43.93849 -0.12416 -10.4148 -19.37667 -6.42332 -3.04654 -3.68051 48.41839 6.19825 8.80673 -24.72793 -6.78747 1.94158 3.19867
